<svg width="518" height="313" viewBox="0 0 518 313" fill="none" xmlns="http://www.w3.org/2000/svg">
<path d="M21 69C39 63 96.7476 11.0198 154 5.99999C229.712 -0.638404 258.413 87.9456 334 80C382.347 74.9178 407 42 457 42C507 42 524.84 54.1922 504 122C482.656 191.449 434 183 399 183C364 183 314 142 269 117C229.741 95.1896 200 172 154 172C108 172 20 113 6.99997 159C-6.00003 205 49.6667 284 92 260C134.333 236 151.463 308.623 217 307C286.912 305.269 265.085 254.889 334 243C372.553 236.349 468 310.667 495 296" stroke="white" stroke-width="10"/>
</svg>
