<svg width="94" height="94" viewBox="0 0 94 94" fill="none" xmlns="http://www.w3.org/2000/svg">
<circle cx="47" cy="47" r="47" fill="#C65B7C"/>
<path fill-rule="evenodd" clip-rule="evenodd" d="M47.4661 77.9771C46.3549 77.8624 45.2427 77.3269 44.4339 76.5173C44.0292 76.1122 43.6965 75.6356 43.4376 75.0898C43.1441 74.4711 43.0312 74.0014 42.9713 73.1495C42.8336 71.1912 42.8008 70.8452 42.6948 70.2287C42.5564 69.424 42.27 68.2961 42.0348 67.6301C41.0875 64.948 39.4636 62.8296 37.2113 61.3381C36.9384 61.1574 36.1965 60.7447 35.5625 60.4212L34.4099 59.8329L34.0737 60.083C33.609 60.4287 32.7264 60.8421 32.166 60.9765C31.7227 61.0828 31.5261 61.0889 28.5267 61.0889C25.5524 61.0889 25.3279 61.0821 24.8988 60.9792C23.946 60.7505 23.1419 60.2979 22.4597 59.6063C21.774 58.9112 21.3145 58.0583 21.0951 57.0735C21.0064 56.6754 21 55.6941 21 42.5447C21 29.3952 21.0064 28.4139 21.0951 28.0158C21.3184 27.0136 21.7783 26.1687 22.4864 25.4599C22.9814 24.9644 23.5511 24.5852 24.1706 24.3386C24.9985 24.0092 25.1236 23.9996 28.5934 24C31.5481 24.0004 31.7819 24.0075 32.2067 24.1094C32.4565 24.1693 32.8163 24.2834 33.0062 24.3628C33.8788 24.7277 34.8758 25.61 35.3642 26.4494C35.563 26.791 35.6343 26.8714 35.7226 26.8533C35.7833 26.8409 36.4036 26.6919 37.1012 26.5222C39.6402 25.9047 43.6719 24.9868 44.5389 24.829C46.2765 24.5126 47.5526 24.3369 49.8112 24.1029C50.2479 24.0577 52.4354 24.0305 56.8387 24.0155C62.5721 23.9959 63.2923 24.003 63.814 24.0846C65.6751 24.3752 67.1202 25.2595 68.0558 26.68C68.4378 27.2601 69.7489 29.8932 70.2938 31.1748C72.7398 36.9278 74.3201 43.4589 74.8143 49.8578C74.934 51.408 75.0287 53.9657 74.992 54.6596C74.9537 55.3838 74.77 56.1549 74.4919 56.7571C74.0472 57.7207 73.2644 58.6669 72.419 59.2629C71.9379 59.6021 71.2346 59.9671 70.673 60.1691C69.3276 60.653 67.2044 60.7993 58.8267 60.9851C57.2194 61.0209 55.896 61.0569 55.8859 61.0652C55.8758 61.0736 55.9057 61.275 55.9523 61.5128C56.1838 62.6942 56.2676 63.8189 56.2764 65.8639C56.281 66.9166 56.2582 67.7207 56.2137 68.0717C55.9154 70.4283 54.9943 72.7386 53.6324 74.5461C52.8848 75.5383 52.0936 76.3011 51.1537 76.9359C49.987 77.724 48.6553 78.1 47.4661 77.9771ZM48.8073 74.447C49.0042 74.3548 49.3168 74.1709 49.502 74.0384C49.9363 73.7278 50.7033 72.9295 51.0733 72.4031C51.9489 71.1577 52.5433 69.7206 52.8194 68.1821C53.0086 67.1276 52.9738 64.1207 52.7553 62.6487C52.6309 61.8103 52.3588 60.7529 51.8855 59.2674C51.6579 58.5535 51.4567 57.93 51.4382 57.8817C51.4077 57.8021 51.8881 57.7905 56.632 57.7562C63.7147 57.705 66.7409 57.6229 68.1455 57.444C68.8088 57.3595 69.6954 57.1272 70.1459 56.9199C70.6557 56.6852 71.1409 56.2144 71.3678 55.7344C71.644 55.1496 71.6754 54.8067 71.5989 53.2056C71.2806 46.5378 70.2838 40.7871 68.5534 35.6361C67.9302 33.7809 66.9967 31.5707 66.2728 30.2365C65.7597 29.2908 65.1867 28.4045 64.9168 28.1391C64.5957 27.8233 64.215 27.617 63.6695 27.463C63.2404 27.3419 63.2081 27.3411 57.9445 27.3224C54.5585 27.3105 52.2237 27.3258 51.4654 27.3649C49.3887 27.472 47.3338 27.7162 45.1713 28.113C44.0236 28.3236 38.7718 29.5302 36.3892 30.1307L35.8978 30.2545L35.9318 33.1294C35.9505 34.7105 36.0056 40.5494 36.0543 46.1046C36.1029 51.6599 36.1555 56.383 36.1713 56.6005L36.1999 56.9959L37.2019 57.4939C37.753 57.7678 38.4574 58.1524 38.7671 58.3487C39.9571 59.1027 41.0793 60.041 41.941 61.0021C43.6293 62.8854 44.7894 65.0156 45.5095 67.5552C45.9373 69.0637 46.1823 70.6153 46.2753 72.4044C46.3305 73.4671 46.3935 73.7035 46.7217 74.0776C47.2436 74.6725 48.0289 74.8116 48.8073 74.447ZM31.8468 57.5693C32.049 57.4696 32.2819 57.3082 32.3644 57.2106C32.447 57.1129 32.5788 56.8964 32.6574 56.7294L32.8002 56.4258L32.8145 42.6861C32.8303 27.5551 32.8527 28.574 32.4923 28.0497C32.3986 27.9133 32.2201 27.7279 32.0959 27.6378C31.6458 27.3115 31.5804 27.3058 28.4647 27.3231C25.6948 27.3385 25.6261 27.3415 25.374 27.4581C25.0096 27.6267 24.6463 27.9824 24.4939 28.3198L24.3636 28.6083V42.5447V56.481L24.4814 56.7361C24.708 57.2266 25.158 57.5984 25.6805 57.7269C25.775 57.7501 27.1184 57.7649 28.6659 57.7598L31.4793 57.7505L31.8468 57.5693Z" fill="white"/>
</svg>
