<svg width="105" height="105" viewBox="0 0 105 105" fill="none" xmlns="http://www.w3.org/2000/svg">
<path d="M105 36.2794L93.6606 52.8454L104.695 69.5976L85.9947 76.0406L85.002 94.9806L64.9787 89.8141L51.6837 105L39.4802 90.0283L20.2869 94.9806L19.2513 75.2215L0 67.8547L11.1583 52.1587L0.288912 36.2794L19.6721 29.2341L21.0691 9.49524L40.1688 14.7663L52.6445 0L65.6596 15.4049L85.7743 10.5724L86.4203 29.5261L105 36.2794Z" fill="#7D53DE"/>
<path fill-rule="evenodd" clip-rule="evenodd" d="M52.4661 20.0229C51.3549 20.1376 50.2427 20.6731 49.4339 21.4828C49.0292 21.8879 48.6965 22.3646 48.4376 22.9104C48.1441 23.5292 48.0312 23.9989 47.9713 24.8508C47.8336 26.8093 47.8008 27.1553 47.6948 27.7718C47.5564 28.5766 47.27 29.7046 47.0348 30.3706C46.0875 33.0529 44.4636 35.1715 42.2113 36.663C41.9384 36.8438 41.1965 37.2564 40.5625 37.58L39.4099 38.1683L39.0737 37.9182C38.609 37.5724 37.7264 37.159 37.166 37.0246C36.7227 36.9183 36.5261 36.9122 33.5267 36.9122C30.5524 36.9122 30.3279 36.919 29.8988 37.0219C28.946 37.2506 28.1419 37.7032 27.4597 38.3949C26.774 39.0901 26.3145 39.943 26.0951 40.9279C26.0064 41.326 26 42.3073 26 55.4577C26 68.608 26.0064 69.5894 26.0951 69.9875C26.3184 70.9898 26.7783 71.8347 27.4864 72.5436C27.9814 73.0391 28.5511 73.4184 29.1706 73.6649C29.9985 73.9944 30.1236 74.004 33.5934 74.0036C36.5481 74.0032 36.7819 73.9961 37.2067 73.8942C37.4565 73.8342 37.8163 73.7202 38.0062 73.6408C38.8788 73.2758 39.8758 72.3935 40.3642 71.554C40.563 71.2124 40.6343 71.132 40.7226 71.1501C40.7833 71.1625 41.4036 71.3115 42.1012 71.4812C44.6402 72.0988 48.6719 73.0167 49.5389 73.1746C51.2765 73.4909 52.5526 73.6666 54.8112 73.9006C55.2479 73.9459 57.4354 73.9731 61.8387 73.9881C67.5721 74.0077 68.2923 74.0005 68.814 73.919C70.6751 73.6283 72.1202 72.744 73.0558 71.3234C73.4378 70.7432 74.7489 68.11 75.2938 66.8283C77.7398 61.0749 79.3201 54.5434 79.8143 48.1441C79.934 46.5938 80.0287 44.0359 79.992 43.3419C79.9537 42.6177 79.77 41.8466 79.4919 41.2443C79.0472 40.2806 78.2644 39.3344 77.419 38.7383C76.9379 38.3991 76.2346 38.0341 75.673 37.8321C74.3276 37.3482 72.2044 37.2019 63.8267 37.016C62.2194 36.9803 60.896 36.9442 60.8859 36.9359C60.8758 36.9275 60.9057 36.7261 60.9523 36.4883C61.1838 35.3068 61.2676 34.182 61.2764 32.1369C61.281 31.0841 61.2582 30.2799 61.2137 29.929C60.9154 27.5722 59.9943 25.2617 58.6324 23.4541C57.8848 22.4619 57.0936 21.699 56.1537 21.0642C54.987 20.276 53.6553 19.9 52.4661 20.0229ZM53.8073 23.5532C54.0042 23.6455 54.3168 23.8293 54.502 23.9618C54.9363 24.2725 55.7033 25.0709 56.0733 25.5973C56.9489 26.8427 57.5433 28.28 57.8194 29.8186C58.0086 30.8731 57.9738 33.8802 57.7553 35.3523C57.6309 36.1907 57.3588 37.2482 56.8855 38.7339C56.6579 39.4478 56.4567 40.0714 56.4382 40.1196C56.4077 40.1992 56.8881 40.2108 61.632 40.2451C68.7147 40.2963 71.7409 40.3784 73.1455 40.5573C73.8088 40.6418 74.6954 40.8742 75.1459 41.0815C75.6557 41.3162 76.1409 41.787 76.3678 42.2671C76.644 42.8519 76.6754 43.1949 76.5989 44.7961C76.2806 51.4643 75.2838 57.2154 73.5534 62.3667C72.9302 64.2221 71.9967 66.4323 71.2728 67.7667C70.7597 68.7124 70.1867 69.5988 69.9168 69.8642C69.5957 70.18 69.215 70.3863 68.6695 70.5404C68.2404 70.6615 68.2081 70.6623 62.9445 70.6809C59.5585 70.6929 57.2237 70.6776 56.4654 70.6385C54.3887 70.5313 52.3338 70.2871 50.1713 69.8903C49.0236 69.6797 43.7718 68.473 41.3892 67.8725L40.8978 67.7486L40.9318 64.8736C40.9505 63.2923 41.0056 57.4531 41.0543 51.8975C41.1029 46.3419 41.1555 41.6184 41.1713 41.4009L41.1999 41.0055L42.2019 40.5075C42.753 40.2336 43.4574 39.8489 43.7671 39.6526C44.9571 38.8985 46.0793 37.9602 46.941 36.999C48.6293 35.1157 49.7894 32.9853 50.5095 30.4455C50.9373 28.9369 51.1823 27.3852 51.2753 25.596C51.3305 24.5332 51.3935 24.2968 51.7217 23.9227C52.2436 23.3277 53.0289 23.1886 53.8073 23.5532ZM36.8468 40.432C37.049 40.5317 37.2819 40.6932 37.3644 40.7908C37.447 40.8885 37.5788 41.105 37.6574 41.272L37.8002 41.5756L37.8145 55.3162C37.8303 70.4483 37.8527 69.4293 37.4923 69.9536C37.3986 70.09 37.2201 70.2754 37.0959 70.3655C36.6458 70.6918 36.5804 70.6975 33.4647 70.6803C30.6948 70.6649 30.6261 70.6619 30.374 70.5452C30.0096 70.3767 29.6463 70.0209 29.4939 69.6835L29.3636 69.395V55.4577V41.5204L29.4814 41.2653C29.708 40.7747 30.158 40.4029 30.6805 40.2745C30.775 40.2512 32.1184 40.2364 33.6659 40.2415L36.4793 40.2509L36.8468 40.432Z" fill="white"/>
</svg>
