<svg width="94" height="94" viewBox="0 0 94 94" fill="none" xmlns="http://www.w3.org/2000/svg">
<circle cx="47" cy="47" r="47" fill="#87A878"/>
<path fill-rule="evenodd" clip-rule="evenodd" d="M47.4661 16.0229C46.3549 16.1376 45.2427 16.6731 44.4339 17.4828C44.0292 17.8879 43.6965 18.3646 43.4376 18.9104C43.1441 19.5292 43.0312 19.9989 42.9713 20.8508C42.8336 22.8093 42.8008 23.1553 42.6948 23.7718C42.5564 24.5766 42.27 25.7046 42.0348 26.3706C41.0875 29.0529 39.4636 31.1715 37.2113 32.663C36.9384 32.8438 36.1965 33.2564 35.5625 33.58L34.4099 34.1683L34.0737 33.9182C33.609 33.5724 32.7264 33.159 32.166 33.0246C31.7227 32.9183 31.5261 32.9122 28.5267 32.9122C25.5524 32.9122 25.3279 32.919 24.8988 33.0219C23.946 33.2506 23.1419 33.7032 22.4597 34.3949C21.774 35.0901 21.3145 35.943 21.0951 36.9279C21.0064 37.326 21 38.3073 21 51.4577C21 64.608 21.0064 65.5894 21.0951 65.9875C21.3184 66.9898 21.7783 67.8347 22.4864 68.5436C22.9814 69.0391 23.5511 69.4184 24.1706 69.6649C24.9985 69.9944 25.1236 70.004 28.5934 70.0036C31.5481 70.0032 31.7819 69.9961 32.2067 69.8942C32.4565 69.8342 32.8163 69.7202 33.0062 69.6408C33.8788 69.2758 34.8758 68.3935 35.3642 67.554C35.563 67.2124 35.6343 67.132 35.7226 67.1501C35.7833 67.1625 36.4036 67.3115 37.1012 67.4812C39.6402 68.0988 43.6719 69.0167 44.5389 69.1746C46.2765 69.4909 47.5526 69.6666 49.8112 69.9006C50.2479 69.9459 52.4354 69.9731 56.8387 69.9881C62.5721 70.0077 63.2923 70.0005 63.814 69.919C65.6751 69.6283 67.1202 68.744 68.0558 67.3234C68.4378 66.7432 69.7489 64.11 70.2938 62.8283C72.7398 57.0749 74.3201 50.5434 74.8143 44.1441C74.934 42.5938 75.0287 40.0359 74.992 39.3419C74.9537 38.6177 74.77 37.8466 74.4919 37.2443C74.0472 36.2806 73.2644 35.3344 72.419 34.7383C71.9379 34.3991 71.2346 34.0341 70.673 33.8321C69.3276 33.3482 67.2044 33.2019 58.8267 33.016C57.2194 32.9803 55.896 32.9442 55.8859 32.9359C55.8758 32.9275 55.9057 32.7261 55.9523 32.4883C56.1838 31.3068 56.2676 30.182 56.2764 28.1369C56.281 27.0841 56.2582 26.2799 56.2137 25.929C55.9154 23.5722 54.9943 21.2617 53.6324 19.4541C52.8848 18.4619 52.0936 17.699 51.1537 17.0642C49.987 16.276 48.6553 15.9 47.4661 16.0229ZM48.8073 19.5532C49.0042 19.6455 49.3168 19.8293 49.502 19.9618C49.9363 20.2725 50.7033 21.0709 51.0733 21.5973C51.9489 22.8427 52.5433 24.28 52.8194 25.8186C53.0086 26.8731 52.9738 29.8802 52.7553 31.3523C52.6309 32.1907 52.3588 33.2482 51.8855 34.7339C51.6579 35.4478 51.4567 36.0714 51.4382 36.1196C51.4077 36.1992 51.8881 36.2108 56.632 36.2451C63.7147 36.2963 66.7409 36.3784 68.1455 36.5573C68.8088 36.6418 69.6954 36.8742 70.1459 37.0815C70.6557 37.3162 71.1409 37.787 71.3678 38.2671C71.644 38.8519 71.6754 39.1949 71.5989 40.7961C71.2806 47.4643 70.2838 53.2154 68.5534 58.3667C67.9302 60.2221 66.9967 62.4323 66.2728 63.7667C65.7597 64.7124 65.1867 65.5988 64.9168 65.8642C64.5957 66.18 64.215 66.3863 63.6695 66.5404C63.2404 66.6615 63.2081 66.6623 57.9445 66.6809C54.5585 66.6929 52.2237 66.6776 51.4654 66.6385C49.3887 66.5313 47.3338 66.2871 45.1713 65.8903C44.0236 65.6797 38.7718 64.473 36.3892 63.8725L35.8978 63.7486L35.9318 60.8736C35.9505 59.2923 36.0056 53.4531 36.0543 47.8975C36.1029 42.3419 36.1555 37.6184 36.1713 37.4009L36.1999 37.0055L37.2019 36.5075C37.753 36.2336 38.4574 35.8489 38.7671 35.6526C39.9571 34.8985 41.0793 33.9602 41.941 32.999C43.6293 31.1157 44.7894 28.9853 45.5095 26.4455C45.9373 24.9369 46.1823 23.3852 46.2753 21.596C46.3305 20.5332 46.3935 20.2968 46.7217 19.9227C47.2436 19.3277 48.0289 19.1886 48.8073 19.5532ZM31.8468 36.432C32.049 36.5317 32.2819 36.6932 32.3644 36.7908C32.447 36.8885 32.5788 37.105 32.6574 37.272L32.8002 37.5756L32.8145 51.3162C32.8303 66.4483 32.8527 65.4293 32.4923 65.9536C32.3986 66.09 32.2201 66.2754 32.0959 66.3655C31.6458 66.6918 31.5804 66.6975 28.4647 66.6803C25.6948 66.6649 25.6261 66.6619 25.374 66.5452C25.0096 66.3767 24.6463 66.0209 24.4939 65.6835L24.3636 65.395V51.4577V37.5204L24.4814 37.2653C24.708 36.7747 25.158 36.4029 25.6805 36.2745C25.775 36.2512 27.1184 36.2364 28.6659 36.2415L31.4793 36.2509L31.8468 36.432Z" fill="white"/>
</svg>
