<svg width="109" height="94" viewBox="0 0 109 94" fill="none" xmlns="http://www.w3.org/2000/svg">
<path d="M50.1699 7.5C52.0944 4.16667 56.9056 4.16667 58.8301 7.5L104.296 86.25C106.221 89.5833 103.815 93.75 99.9663 93.75H9.03367C5.18467 93.75 2.77904 89.5833 4.70354 86.25L50.1699 7.5Z" fill="#DBAD6A"/>
<path d="M52.5024 34.3217L52.5021 34.3219C52.3784 34.4227 52.125 34.7077 51.7457 35.2467C51.3842 35.7605 50.9549 36.437 50.4761 37.2495C49.5195 38.873 48.3886 41 47.2384 43.3708L47.2384 43.3708C46.6879 44.5054 46.1823 45.5345 45.8109 46.2789C45.6256 46.6504 45.472 46.9544 45.3623 47.1662C45.3082 47.2706 45.2611 47.3598 45.2248 47.4254C45.2082 47.4554 45.1856 47.4954 45.1619 47.5331L45.1617 47.5334C45.1531 47.5469 45.1251 47.5914 45.0856 47.6406L45.0847 47.6417C45.0705 47.6595 45.012 47.7324 44.92 47.8045C44.879 47.8366 44.7577 47.9285 44.5736 47.9805C44.3552 48.0421 43.9733 48.0578 43.6452 47.7726C43.4716 47.6216 43.3974 47.4522 43.3701 47.3828C43.3373 47.2992 43.3227 47.2287 43.316 47.1907C43.3024 47.1143 43.3008 47.0529 43.3004 47.0292C43.2995 46.9749 43.303 46.9304 43.3045 46.9132C43.308 46.8713 43.3135 46.8301 43.3176 46.8009C43.3266 46.7373 43.3401 46.6555 43.356 46.5638C43.3883 46.3775 43.4367 46.1158 43.4969 45.8006C43.6177 45.1685 43.7892 44.3043 43.9822 43.3599L44.9253 43.5527L43.9822 43.3599C44.3141 41.7368 44.4681 40.9338 44.5119 40.4273C44.5321 40.1937 44.5246 40.0608 44.5097 39.9631C44.4941 39.8616 44.4644 39.7552 44.395 39.5606C44.293 39.2746 44.2158 39.1568 44.1546 39.0883C44.0953 39.0219 43.9937 38.9376 43.7353 38.8153L43.7351 38.8152C43.4007 38.6568 43.2903 38.6333 43.2535 38.6293L43.253 38.6293C43.2475 38.6287 43.2448 38.6284 43.2327 38.6307C43.2131 38.6344 43.1691 38.6455 43.0799 38.6813L43.0799 38.6813C42.9637 38.7279 42.7694 38.8579 42.5205 39.202C42.273 39.5441 42.0095 40.0461 41.7403 40.7452C41.2013 42.1449 40.6936 44.19 40.2104 46.9677M52.5024 34.3217L68.9587 64.5785C69.6703 64.8705 69.882 65.1738 69.9591 65.4933C70.0623 65.9216 69.9912 66.6488 69.5146 67.9112C68.7423 69.9558 67.7081 71.5474 66.0269 73.2505L66.7385 73.953L66.0268 73.2505C64.6022 74.6937 63.103 75.7568 61.0727 76.7492C59.1872 77.6707 57.7198 77.9967 55.3011 78M52.5024 34.3217C52.6943 34.165 52.812 34.1057 52.9259 34.0705C53.0577 34.0298 53.2555 34 53.6418 34C54.0061 34 54.2071 34.0281 54.3253 34.0612C54.418 34.0872 54.456 34.1144 54.4945 34.1517C54.5699 34.2249 54.7326 34.393 54.6555 35.4021C54.645 35.4394 54.6279 35.4954 54.6029 35.5722C54.5507 35.7322 54.4742 35.9522 54.3771 36.2217C54.1836 36.7588 53.9171 37.4674 53.6217 38.2331C53.0295 39.7679 52.3322 41.5032 51.8856 42.5194L51.8856 42.5195C51.8246 42.6583 51.7586 42.8535 51.7495 43.0717C51.7455 43.168 51.7463 43.3848 51.8625 43.6178C52.0136 43.9207 52.343 44.1928 52.7899 44.1928C53.0698 44.1928 53.2652 44.0757 53.314 44.0462C53.3896 44.0005 53.4441 43.9542 53.4715 43.9299C53.5285 43.8792 53.5719 43.8299 53.5945 43.8036C53.6446 43.7452 53.6939 43.6795 53.7356 43.6218C53.823 43.5008 53.9321 43.3387 54.0524 43.1535C54.2954 42.7793 54.6105 42.2707 54.9406 41.7161C55.9314 40.0521 57.0674 38.3166 58.0455 36.9372C58.535 36.2469 58.9789 35.6546 59.3408 35.2086C59.522 34.9853 59.6764 34.8066 59.801 34.6739C59.8631 34.6078 59.9133 34.558 59.9521 34.5222C59.9882 34.4889 60.0051 34.4763 60.005 34.4763C60.005 34.4763 60.005 34.4763 60.0049 34.4763C60.317 34.2613 60.7757 34.1006 61.2422 34.0491C61.7383 33.9943 62.0426 34.0823 62.1353 34.141C62.2421 34.2088 62.3981 34.3817 62.4942 34.7685C62.5894 35.1516 62.605 35.6774 62.4839 36.3039L62.4839 36.304C62.359 36.9502 62.0427 37.818 61.3095 39.2682C60.5796 40.712 59.4684 42.6726 57.7985 45.4923L57.7985 45.4924C57.0281 46.7932 56.3271 47.9891 55.818 48.8681C55.5637 49.3072 55.3559 49.6699 55.2107 49.9281C55.1386 50.0563 55.0791 50.1638 55.0364 50.2438C55.0158 50.2825 54.9944 50.3236 54.9763 50.3608C54.968 50.378 54.9541 50.4073 54.9401 50.4413C54.9335 50.4575 54.9209 50.489 54.9084 50.5289C54.9083 50.5293 54.9081 50.5299 54.9078 50.5307C54.9019 50.5491 54.8617 50.6733 54.8617 50.8325C54.8617 51.1965 55.0496 51.4422 55.1728 51.5601C55.2898 51.6721 55.4064 51.7295 55.46 51.7538C55.5721 51.8046 55.6716 51.8252 55.7086 51.8325C55.7999 51.8507 55.8917 51.8588 55.9555 51.8633C56.0959 51.8732 56.276 51.877 56.472 51.8772C56.871 51.8775 57.409 51.8624 57.9927 51.8329L57.9929 51.8329C59.1431 51.7744 60.4611 51.8412 61.0319 51.9598L52.5024 34.3217ZM40.2104 46.9677L39.2252 46.7963M40.2104 46.9677L39.2252 46.7963M40.2104 46.9677C39.1537 53.0446 38.9087 55.9676 39.0272 60.9523C39.0882 63.5134 39.1707 64.982 39.3896 66.1311C39.6009 67.2396 39.9447 68.0784 40.6031 69.3648C41.5303 71.1763 42.3432 72.2609 43.8946 73.7448L43.8947 73.7448C46.836 76.5586 50.6483 78.006 55.3011 78M39.2252 46.7963C38.1597 52.9237 37.9072 55.9132 38.0275 60.976C38.149 66.0787 38.357 67.1711 39.7129 69.8204C40.6934 71.736 41.5751 72.9099 43.2034 74.4674C46.3539 77.4813 50.4249 79.0063 55.3024 79M39.2252 46.7963C40.199 41.1976 41.3091 38.3148 42.7072 37.7533L61.5118 77.6476C59.4739 78.6437 57.8538 78.9965 55.3024 79M55.3011 78L55.3024 79M55.3011 78L55.3024 79M61.4675 71.0643L61.4674 71.0643C60.4365 71.525 59.6364 71.6243 57.9865 71.6237H57.9864C57.1194 71.6232 56.4932 71.6061 55.9486 71.5058C55.3669 71.3988 54.9211 71.2057 54.3974 70.9362L61.4675 71.0643ZM61.4675 71.0643C63.1042 70.3329 64.8288 68.5736 66.004 66.6101M61.4675 71.0643L66.004 66.6101M61.8537 56.707L61.8538 56.707C62.6255 57.1199 63.2384 57.5277 63.7916 58.0866C64.3376 58.6381 64.7839 59.295 65.2768 60.1478C65.4551 60.4561 65.6726 60.7651 65.8728 61.0064C65.9728 61.127 66.0596 61.2199 66.1265 61.2831C66.1544 61.3095 66.1734 61.3255 66.1839 61.3341C66.3998 61.4316 66.7148 61.4919 67.0724 61.4751C67.4457 61.4575 67.7813 61.3596 68.0101 61.2243L68.0101 61.2243C68.8815 60.7091 69.3752 59.092 68.4641 57.2963L61.8537 56.707ZM61.8537 56.707C61.3074 56.4147 60.8571 56.201 60.2534 56.0866C59.6951 55.9808 59.0402 55.9677 58.1 55.9666C57.1743 55.9654 56.523 55.9792 55.9691 56.0774C55.3715 56.1834 54.9258 56.3796 54.3961 56.6532C52.7387 57.509 51.4126 58.8713 50.6126 60.5446C50.3651 61.0622 50.188 61.5262 50.0803 62.0588C49.9747 62.5811 49.9446 63.127 49.9446 63.7953C49.9446 64.4636 49.9747 65.0096 50.0803 65.5318C50.188 66.0645 50.3651 66.5284 50.6126 67.046M61.8537 56.707L50.6126 67.046M66.004 66.6101C66.6374 65.5521 67.2115 64.9548 67.6975 64.6715M66.004 66.6101L67.6975 64.6715M67.6975 64.6715C68.1279 64.4207 68.514 64.3961 68.9586 64.5784L67.6975 64.6715ZM50.6126 67.046C51.4133 68.7205 52.7403 70.0834 54.3974 70.9362L50.6126 67.046ZM44.9532 46.2596C44.9546 46.2608 44.9561 46.2621 44.9575 46.2633L44.9532 46.2596ZM54.6632 35.3735C54.6642 35.3688 54.6649 35.3662 54.665 35.3661C54.665 35.366 54.6645 35.3683 54.6632 35.3735Z" stroke="white" stroke-width="2"/>
</svg>
