<svg width="94" height="94" viewBox="0 0 94 94" fill="none" xmlns="http://www.w3.org/2000/svg">
<rect width="94" height="94" fill="#CC2936"/>
<path fill-rule="evenodd" clip-rule="evenodd" d="M47.4661 78.9771C46.3549 78.8624 45.2427 78.3269 44.4339 77.5173C44.0292 77.1122 43.6965 76.6356 43.4376 76.0898C43.1441 75.4711 43.0312 75.0014 42.9713 74.1495C42.8336 72.1912 42.8008 71.8452 42.6948 71.2287C42.5564 70.424 42.27 69.2961 42.0348 68.6301C41.0875 65.948 39.4636 63.8296 37.2113 62.3381C36.9384 62.1574 36.1965 61.7447 35.5625 61.4212L34.4099 60.8329L34.0737 61.083C33.609 61.4287 32.7264 61.8421 32.166 61.9765C31.7227 62.0828 31.5261 62.0889 28.5267 62.0889C25.5524 62.0889 25.3279 62.0821 24.8988 61.9792C23.946 61.7505 23.1419 61.2979 22.4597 60.6063C21.774 59.9112 21.3145 59.0583 21.0951 58.0735C21.0064 57.6754 21 56.6941 21 43.5447C21 30.3952 21.0064 29.4139 21.0951 29.0158C21.3184 28.0136 21.7783 27.1687 22.4864 26.4599C22.9814 25.9644 23.5511 25.5852 24.1706 25.3386C24.9985 25.0092 25.1236 24.9996 28.5934 25C31.5481 25.0004 31.7819 25.0075 32.2067 25.1094C32.4565 25.1693 32.8163 25.2834 33.0062 25.3628C33.8788 25.7277 34.8758 26.61 35.3642 27.4494C35.563 27.791 35.6343 27.8714 35.7226 27.8533C35.7833 27.8409 36.4036 27.6919 37.1012 27.5222C39.6402 26.9047 43.6719 25.9868 44.5389 25.829C46.2765 25.5126 47.5526 25.3369 49.8112 25.1029C50.2479 25.0577 52.4354 25.0305 56.8387 25.0155C62.5721 24.9959 63.2923 25.003 63.814 25.0846C65.6751 25.3752 67.1202 26.2595 68.0558 27.68C68.4378 28.2601 69.7489 30.8932 70.2938 32.1748C72.7398 37.9278 74.3201 44.4589 74.8143 50.8578C74.934 52.408 75.0287 54.9657 74.992 55.6596C74.9537 56.3838 74.77 57.1549 74.4919 57.7571C74.0472 58.7207 73.2644 59.6669 72.419 60.2629C71.9379 60.6021 71.2346 60.9671 70.673 61.1691C69.3276 61.653 67.2044 61.7993 58.8267 61.9851C57.2194 62.0209 55.896 62.0569 55.8859 62.0652C55.8758 62.0736 55.9057 62.275 55.9523 62.5128C56.1838 63.6942 56.2676 64.8189 56.2764 66.8639C56.281 67.9166 56.2582 68.7207 56.2137 69.0717C55.9154 71.4283 54.9943 73.7386 53.6324 75.5461C52.8848 76.5383 52.0936 77.3011 51.1537 77.9359C49.987 78.724 48.6553 79.1 47.4661 78.9771ZM48.8073 75.447C49.0042 75.3548 49.3168 75.1709 49.502 75.0384C49.9363 74.7278 50.7033 73.9295 51.0733 73.4031C51.9489 72.1577 52.5433 70.7206 52.8194 69.1821C53.0086 68.1276 52.9738 65.1207 52.7553 63.6487C52.6309 62.8103 52.3588 61.7529 51.8855 60.2674C51.6579 59.5535 51.4567 58.93 51.4382 58.8817C51.4077 58.8021 51.8881 58.7905 56.632 58.7562C63.7147 58.705 66.7409 58.6229 68.1455 58.444C68.8088 58.3595 69.6954 58.1272 70.1459 57.9199C70.6557 57.6852 71.1409 57.2144 71.3678 56.7344C71.644 56.1496 71.6754 55.8067 71.5989 54.2056C71.2806 47.5378 70.2838 41.7871 68.5534 36.6361C67.9302 34.7809 66.9967 32.5707 66.2728 31.2365C65.7597 30.2908 65.1867 29.4045 64.9168 29.1391C64.5957 28.8233 64.215 28.617 63.6695 28.463C63.2404 28.3419 63.2081 28.3411 57.9445 28.3224C54.5585 28.3105 52.2237 28.3258 51.4654 28.3649C49.3887 28.472 47.3338 28.7162 45.1713 29.113C44.0236 29.3236 38.7718 30.5302 36.3892 31.1307L35.8978 31.2545L35.9318 34.1294C35.9505 35.7105 36.0056 41.5494 36.0543 47.1046C36.1029 52.6599 36.1555 57.383 36.1713 57.6005L36.1999 57.9959L37.2019 58.4939C37.753 58.7678 38.4574 59.1524 38.7671 59.3487C39.9571 60.1027 41.0793 61.041 41.941 62.0021C43.6293 63.8854 44.7894 66.0156 45.5095 68.5552C45.9373 70.0637 46.1823 71.6153 46.2753 73.4044C46.3305 74.4671 46.3935 74.7035 46.7217 75.0776C47.2436 75.6725 48.0289 75.8116 48.8073 75.447ZM31.8468 58.5693C32.049 58.4696 32.2819 58.3082 32.3644 58.2106C32.447 58.1129 32.5788 57.8964 32.6574 57.7294L32.8002 57.4258L32.8145 43.6861C32.8303 28.5551 32.8527 29.574 32.4923 29.0497C32.3986 28.9133 32.2201 28.7279 32.0959 28.6378C31.6458 28.3115 31.5804 28.3058 28.4647 28.3231C25.6948 28.3385 25.6261 28.3415 25.374 28.4581C25.0096 28.6267 24.6463 28.9824 24.4939 29.3198L24.3636 29.6083V43.5447V57.481L24.4814 57.7361C24.708 58.2266 25.158 58.5984 25.6805 58.7269C25.775 58.7501 27.1184 58.7649 28.6659 58.7598L31.4793 58.7505L31.8468 58.5693Z" fill="white"/>
</svg>
